<svg width="245" height="203" viewBox="0 0 245 203" fill="none" xmlns="http://www.w3.org/2000/svg"><g clip-path="url(#a)"><path d="M144.049 47.77h1.112V17.511c0-2.3.457-4.577 1.343-6.702a17.494 17.494 0 0 1 3.823-5.68 17.647 17.647 0 0 1 5.722-3.797A17.75 17.75 0 0 1 162.799 0h64.563c2.317 0 4.61.453 6.75 1.333 2.14.88 4.084 2.17 5.722 3.796a17.494 17.494 0 0 1 3.823 5.681A17.393 17.393 0 0 1 245 17.512v165.993a17.39 17.39 0 0 1-1.343 6.701 17.503 17.503 0 0 1-3.823 5.682 17.648 17.648 0 0 1-5.722 3.796 17.748 17.748 0 0 1-6.75 1.333h-64.563c-2.316 0-4.61-.453-6.75-1.333a17.648 17.648 0 0 1-5.722-3.796 17.503 17.503 0 0 1-3.823-5.682 17.409 17.409 0 0 1-1.343-6.701V69.307h-1.112V47.769Z" fill="#E6E6E6"/><path d="M162.087 4.556h8.428a6.176 6.176 0 0 0 .6 5.812 6.247 6.247 0 0 0 2.252 2.018 6.29 6.29 0 0 0 2.942.73h36.987a6.296 6.296 0 0 0 2.943-.73 6.252 6.252 0 0 0 2.251-2.018 6.193 6.193 0 0 0 1.031-2.831 6.164 6.164 0 0 0-.431-2.981h7.872c1.729 0 3.442.338 5.04.995a13.196 13.196 0 0 1 4.273 2.835 13.06 13.06 0 0 1 2.856 4.243 12.995 12.995 0 0 1 1.002 5.005v165.749c0 1.717-.34 3.418-1.002 5.004a13.054 13.054 0 0 1-2.856 4.243 13.164 13.164 0 0 1-4.273 2.835 13.258 13.258 0 0 1-5.04.996h-64.875c-1.729 0-3.442-.339-5.04-.996a13.164 13.164 0 0 1-4.273-2.835 13.07 13.07 0 0 1-2.856-4.243 12.99 12.99 0 0 1-1.002-5.004V17.633c0-1.717.34-3.417 1.002-5.004a13.076 13.076 0 0 1 2.856-4.243 13.177 13.177 0 0 1 4.273-2.835 13.253 13.253 0 0 1 5.04-.995Z" fill="#fff"/><path d="M213.638 38.251h3.873a.515.515 0 0 1 .514.51v1.688a.515.515 0 0 1-.514.51h-.642v2.53h-2.589v-2.53h-.642a.513.513 0 0 1-.514-.51V38.76a.513.513 0 0 1 .514-.51Z" fill="#E6E6E6"/><path d="M209.758 53.7a19.669 19.669 0 0 0 3.464-11.722.42.42 0 0 1 .328-.417v-.729h4.091v.72h.056a.42.42 0 0 1 .42.417l-.001.03c-.323 4.46.766 8.46 3.264 12 .144.204.218.448.21.697l-.448 13.738a1.18 1.18 0 0 1-.361.81 1.201 1.201 0 0 1-.826.338h-9.253a1.202 1.202 0 0 1-.833-.345 1.183 1.183 0 0 1-.355-.823l-.173-13.34a2.4 2.4 0 0 1 .417-1.374Z" fill="#E6E6E6"/><path d="M211.223 58.264h8.054a.83.83 0 0 1 .795.595.83.83 0 0 1 .022.35l-1.217 7.855h-6.989l-1.478-7.828a.828.828 0 0 1 .176-.676.831.831 0 0 1 .637-.296Z" fill="#fff"/><path d="M170.519 79.406h3.873a.515.515 0 0 1 .514.51v1.688a.515.515 0 0 1-.514.51h-.642v2.529h-2.589v-2.53h-.642a.515.515 0 0 1-.514-.51v-1.687a.515.515 0 0 1 .514-.51Z" fill="#E6E6E6"/><path d="M166.639 94.855a19.676 19.676 0 0 0 3.465-11.723.418.418 0 0 1 .327-.416v-.73h4.091v.72h.057a.421.421 0 0 1 .419.417l-.001.03c-.323 4.461.766 8.461 3.265 12 .143.204.217.449.209.697l-.447 13.738a1.199 1.199 0 0 1-1.188 1.148h-9.253a1.2 1.2 0 0 1-.833-.344 1.183 1.183 0 0 1-.355-.824l-.173-13.339a2.4 2.4 0 0 1 .417-1.374Z" fill="#E6E6E6"/><path d="M168.104 99.418h8.054a.83.83 0 0 1 .795.596c.033.114.04.233.022.35l-1.217 7.855h-6.989l-1.478-7.828a.823.823 0 0 1 .461-.895.834.834 0 0 1 .352-.078Z" fill="#fff"/><path d="M219.083 137.586h1.838a.24.24 0 0 1 .243.242v.801a.239.239 0 0 1-.071.171.247.247 0 0 1-.172.071h-.305v1.2h-1.228v-1.2h-.305a.247.247 0 0 1-.172-.071.239.239 0 0 1-.071-.171v-.801a.24.24 0 0 1 .243-.242Z" fill="#E6E6E6"/><path d="M217.243 144.915a9.335 9.335 0 0 0 1.643-5.561.197.197 0 0 1 .156-.197v-.346h1.94v.341h.027a.198.198 0 0 1 .199.198l-.001.014a8.512 8.512 0 0 0 1.549 5.692.545.545 0 0 1 .099.331l-.212 6.516a.566.566 0 0 1-.563.545h-4.389a.566.566 0 0 1-.564-.554l-.082-6.327c-.002-.233.067-.46.198-.652Z" fill="#E6E6E6"/><path d="M217.875 147.31h4.187v2.079h-4.187v-2.079Z" fill="#fff"/><path d="M210.53 137.586h1.838a.24.24 0 0 1 .243.242v.801a.239.239 0 0 1-.071.171.247.247 0 0 1-.172.071h-.305v1.2h-1.228v-1.2h-.305a.247.247 0 0 1-.172-.071.239.239 0 0 1-.071-.171v-.801a.24.24 0 0 1 .243-.242Z" fill="#E6E6E6"/><path d="M208.69 144.915a9.335 9.335 0 0 0 1.643-5.561.193.193 0 0 1 .043-.126.197.197 0 0 1 .113-.071v-.346h1.94v.341h.027a.198.198 0 0 1 .199.198l-.001.014a8.512 8.512 0 0 0 1.549 5.692.545.545 0 0 1 .099.331l-.212 6.516a.562.562 0 0 1-.563.545h-4.389a.566.566 0 0 1-.564-.554l-.082-6.327c-.002-.233.067-.46.198-.652Z" fill="#E6E6E6"/><path d="M209.322 147.31h4.188v2.079h-4.188v-2.079Z" fill="#fff"/><path d="M201.977 137.586h1.838a.24.24 0 0 1 .243.242v.801a.239.239 0 0 1-.071.171.247.247 0 0 1-.172.071h-.305v1.2h-1.228v-1.2h-.305a.247.247 0 0 1-.172-.071.239.239 0 0 1-.071-.171v-.801a.24.24 0 0 1 .243-.242Z" fill="#E6E6E6"/><path d="M200.137 144.915a9.329 9.329 0 0 0 1.643-5.561.193.193 0 0 1 .043-.126.197.197 0 0 1 .113-.071v-.346h1.94v.341h.027a.198.198 0 0 1 .199.198l-.001.014a8.512 8.512 0 0 0 1.549 5.692.545.545 0 0 1 .099.331l-.212 6.516a.562.562 0 0 1-.563.545h-4.389a.57.57 0 0 1-.564-.554l-.082-6.327c-.002-.233.067-.46.198-.652Z" fill="#E6E6E6"/><path d="M200.769 147.31h4.188v2.079h-4.188v-2.079Z" fill="#fff"/><path d="M177.248 121.665h3.873a.504.504 0 0 1 .363.15.503.503 0 0 1 .151.36v1.688a.506.506 0 0 1-.151.361.517.517 0 0 1-.363.149h-.642v2.529h-2.589v-2.529h-.642a.517.517 0 0 1-.363-.149.506.506 0 0 1-.151-.361v-1.688a.503.503 0 0 1 .151-.36.504.504 0 0 1 .363-.15Z" fill="#E6E6E6"/><path d="M173.368 137.114a19.675 19.675 0 0 0 3.465-11.722.41.41 0 0 1 .089-.267.427.427 0 0 1 .238-.15v-.729h4.091v.719h.057a.42.42 0 0 1 .419.418l-.001.03c-.323 4.461.766 8.461 3.265 12 .143.204.217.448.209.697l-.447 13.738a1.19 1.19 0 0 1-.362.811 1.208 1.208 0 0 1-.826.337h-9.253a1.202 1.202 0 0 1-.833-.345 1.185 1.185 0 0 1-.355-.823l-.173-13.339c-.005-.49.141-.969.417-1.375Z" fill="#E6E6E6"/><path d="M174.833 141.678h8.054a.821.821 0 0 1 .627.286.826.826 0 0 1 .19.66l-1.217 7.854h-6.989l-1.478-7.828a.814.814 0 0 1 .177-.675.822.822 0 0 1 .636-.297Z" fill="#fff"/><path d="M175.133 71.35h23.09c-1.615-8.665-1.243-19.13 0-30.383h-23.09c1.21 11.254 1.572 21.718 0 30.383Z" fill="#E6E6E6"/><path d="M186.539 60.854c-3.073 0-5.564-2.473-5.564-5.524 0-3.05 2.491-5.524 5.564-5.524s5.564 2.473 5.564 5.524c0 3.05-2.491 5.524-5.564 5.524Z" fill="#fff"/><path d="M196.275 111.676h23.09c-1.614-8.665-1.243-19.13 0-30.383h-23.09c1.21 11.254 1.572 21.718 0 30.383Z" fill="#E6E6E6"/><path d="M207.681 101.18c-3.073 0-5.564-2.473-5.564-5.524 0-3.05 2.491-5.524 5.564-5.524s5.564 2.473 5.564 5.524-2.491 5.524-5.564 5.524Z" fill="#fff"/><path d="M162.058 73.284h23.09c-1.614-8.666-1.243-19.13 0-30.383h-23.09c1.21 11.253 1.572 21.717 0 30.383Z" fill="#E6E6E6"/><path d="M173.464 62.788c-3.073 0-5.564-2.473-5.564-5.524s2.491-5.524 5.564-5.524 5.564 2.473 5.564 5.524c0 3.05-2.491 5.524-5.564 5.524Z" fill="#fff"/><path d="M162.058 71.903h23.09c-1.614-8.666-1.243-19.13 0-30.383h-23.09c1.21 11.253 1.572 21.717 0 30.383Z" fill="#E6E6E6"/><path d="M173.464 61.407c-3.073 0-5.564-2.474-5.564-5.524 0-3.051 2.491-5.525 5.564-5.525s5.564 2.474 5.564 5.525c0 3.05-2.491 5.524-5.564 5.524Z" fill="#fff"/><path d="M162.058 73.284h23.09c-1.614-8.666-1.243-19.13 0-30.383h-23.09c1.21 11.253 1.572 21.717 0 30.383Z" fill="#E6E6E6"/><path d="M173.464 62.788c-3.073 0-5.564-2.473-5.564-5.524s2.491-5.524 5.564-5.524 5.564 2.473 5.564 5.524c0 3.05-2.491 5.524-5.564 5.524Z" fill="#fff"/><path d="M156.773 69.693h75.667v8.286h-75.667v-8.286Zm0 41.155h75.667v8.286h-75.667v-8.286Zm0 41.154h75.667v8.286h-75.667v-8.286Z" fill="#E6E6E6"/><path d="m25.147 185.619 18.85-13.238c-6.357-6.15-12.14-14.906-17.67-24.806l-18.85 13.239c7.532 8.493 13.913 16.829 17.67 24.805Z" fill="#F9A109"/><path d="M25.142 171.525c-3.073 0-5.564-2.474-5.564-5.524 0-3.051 2.491-5.525 5.564-5.525s5.564 2.474 5.564 5.525c0 3.05-2.491 5.524-5.564 5.524Z" fill="#fff"/><path d="M116.082 125.21h2.069a.275.275 0 0 1 .274.273v.902a.265.265 0 0 1-.08.192.27.27 0 0 1-.194.08h-.343v1.351h-1.383v-1.351h-.343a.275.275 0 0 1-.275-.272v-.902a.275.275 0 0 1 .275-.273Z" fill="#E6E6E6"/><path d="M114.009 133.463a10.505 10.505 0 0 0 1.851-6.262.222.222 0 0 1 .175-.222v-.39h2.186v.384h.03c.029 0 .058.006.086.017a.236.236 0 0 1 .121.121.226.226 0 0 1 .017.085l-.001.016a9.585 9.585 0 0 0 1.744 6.411.611.611 0 0 1 .112.372l-.239 7.339a.642.642 0 0 1-.634.614h-4.943a.637.637 0 0 1-.635-.624l-.092-7.126a1.284 1.284 0 0 1 .222-.735Z" fill="#F9A109"/><path opacity=".2" d="M116.513 125.504a.588.588 0 0 0 .592.588.587.587 0 0 0 .592-.588" fill="#000"/><path d="M114.972 134.877h4.173v2.763h-4.173v-2.763Z" fill="#fff"/><path d="M50.6 153.881h3.873a.515.515 0 0 1 .514.51v1.688a.508.508 0 0 1-.514.51h-.642v2.53h-2.59v-2.53H50.6a.513.513 0 0 1-.514-.51v-1.688a.514.514 0 0 1 .514-.51Z" fill="#E6E6E6"/><path d="M46.72 169.331a19.672 19.672 0 0 0 3.464-11.723.414.414 0 0 1 .328-.416v-.73h4.091v.72h.056a.42.42 0 0 1 .388.257.417.417 0 0 1 .03.19c-.322 4.461.767 8.461 3.265 12.001.144.203.218.447.21.696l-.448 13.738c-.01.306-.14.597-.361.811a1.204 1.204 0 0 1-.826.337h-9.253a1.205 1.205 0 0 1-.833-.344 1.188 1.188 0 0 1-.356-.824l-.172-13.339c-.005-.49.14-.969.417-1.374Z" fill="#F9A109"/><path opacity=".2" d="M51.407 154.431a1.109 1.109 0 0 0 1.108 1.1 1.106 1.106 0 0 0 1.108-1.1" fill="#000"/><path d="M48.184 173.894h8.055a.823.823 0 0 1 .817.946l-1.217 7.854H48.85l-1.478-7.828a.814.814 0 0 1 .461-.894.82.82 0 0 1 .352-.078Z" fill="#fff"/><path d="M61.651 185.597h23.09c-1.615-8.665-1.243-19.129 0-30.382H61.65c1.21 11.253 1.571 21.717 0 30.382Z" fill="#F9A109"/><path d="M73.057 175.101c-3.073 0-5.564-2.473-5.564-5.524s2.491-5.524 5.564-5.524c3.072 0 5.564 2.473 5.564 5.524s-2.492 5.524-5.564 5.524Z" fill="#fff"/><path d="m156.093 89.979-5.184-.468-3.298-7.954 5.89-3.275 2.592 11.697Zm-47.57 21.835a2.881 2.881 0 0 1 .244-2.634 2.927 2.927 0 0 1 2.294-1.343l8.048-.476 1.185 3.912-8.285 2.259a2.939 2.939 0 0 1-2.073-.199 2.91 2.91 0 0 1-1.413-1.519Z" fill="#FFB8B8"/><path d="m117.164 113.598.089-7.342 17.876-2.832 13.772-15.682a4.533 4.533 0 0 1 5.875-.798 4.476 4.476 0 0 1 2.001 3.232 4.445 4.445 0 0 1-1.216 3.596L144.2 107.654l-27.036 5.944Z" fill="#575A89"/><path d="M160.098 196.184h-4.712l-11.688-52.468-12.109 16.209-7.068 35.089h-4.476l.942-37.663 15.786-40.236h15.55c4.25 7.636 7.583 15.507 3.77 23.627l4.005 55.442Z" fill="#2F2E41"/><path d="M127.41 199.371a1.215 1.215 0 0 1-.48 1.372 1.24 1.24 0 0 1-.479.194l-11.531 2.032a1.904 1.904 0 0 1-2.152-1.291 1.855 1.855 0 0 1 .053-1.28c.168-.407.476-.742.869-.946a17.605 17.605 0 0 0 6.359-5.489c1.267 1.171 2.684 1.061 4.188.198l1.595.198 1.578 5.012Zm34.87 0a1.215 1.215 0 0 1-.479 1.372 1.244 1.244 0 0 1-.48.194l-11.531 2.032a1.905 1.905 0 0 1-1.322-.241 1.883 1.883 0 0 1-.83-1.05 1.86 1.86 0 0 1 .053-1.28c.169-.407.476-.742.869-.946a17.589 17.589 0 0 0 6.359-5.489c1.268 1.171 2.684 1.061 4.188.198l1.596.198 1.577 5.012Z" fill="#2F2E41"/><path d="M147.493 84.481c-3.643 0-6.597-2.932-6.597-6.55 0-3.617 2.954-6.55 6.597-6.55 3.644 0 6.597 2.933 6.597 6.55 0 3.618-2.953 6.55-6.597 6.55Z" fill="#FFB8B8"/><path d="m153.383 118.869-17.199-.467 5.051-15.785c-3.139-4.996.02-9.987 4.491-14.978l3.534-2.339 5.655-.468a13.728 13.728 0 0 1 3.738 9.602c-.112 7.623-1.471 15.921-5.27 24.435Z" fill="#575A89"/><path d="M113.867 129.494a2.892 2.892 0 0 1-.819-2.517c.074-.454.256-.883.53-1.254.274-.37.633-.671 1.047-.877l7.211-3.581 2.639 3.134-6.722 5.313a2.936 2.936 0 0 1-3.886-.218Z" fill="#FFB8B8"/><path d="m122.519 127.759-2.828-6.784 15.313-9.586 6.448-19.797a4.485 4.485 0 0 1 1.971-2.461 4.532 4.532 0 0 1 3.114-.567 4.53 4.53 0 0 1 1.805.75 4.479 4.479 0 0 1 1.892 3.295 4.444 4.444 0 0 1-.27 1.925l-4.945 17.201-22.5 16.024Z" fill="#575A89"/><path d="M158.331 75.358c0 2.549-1.667 6.496-3.77 8.188-1.414 1.138-3.284 1.09-4.005-.468-.739-1.599-3.289-5.356-7.775-7.72-5.981-3.15 2.121-8.542 7.775-7.72 4.249.618 7.775 3.456 7.775 7.72Z" fill="#2F2E41"/><path d="M154.326 71.849c-2.603 0-4.712-2.095-4.712-4.679s2.109-4.678 4.712-4.678c2.602 0 4.712 2.094 4.712 4.678s-2.11 4.679-4.712 4.679Z" fill="#2F2E41"/><path d="M148.907 65.533c0-1.18.45-2.315 1.258-3.18a4.723 4.723 0 0 1 3.101-1.48 4.175 4.175 0 0 0-.354-.019 4.73 4.73 0 0 0-3.332 1.37 4.66 4.66 0 0 0-1.38 3.309c0 1.24.496 2.43 1.38 3.308a4.73 4.73 0 0 0 3.332 1.37c.119 0 .236-.008.354-.017a4.722 4.722 0 0 1-3.101-1.481 4.657 4.657 0 0 1-1.258-3.18Z" fill="#2F2E41"/><path d="M147.375 80.27c-.585 0-1.06-.628-1.06-1.403s.475-1.404 1.06-1.404c.586 0 1.061.629 1.061 1.404 0 .775-.475 1.404-1.061 1.404Z" fill="#FFB8B8"/><path d="M13.864 187.604h73.354l15.534-72.908h13.256v-3.272h-15.927l-15.534 72.908H13.864v3.272Z" fill="#3F3D56"/><path d="M76.468 200.924c-3.9 0-7.06-3.139-7.06-7.011 0-3.872 3.16-7.01 7.06-7.01 3.9 0 7.061 3.138 7.061 7.01s-3.161 7.011-7.06 7.011Zm-52.719 0c-3.9 0-7.061-3.139-7.061-7.011 0-3.872 3.161-7.01 7.06-7.01 3.9 0 7.061 3.138 7.061 7.01s-3.16 7.011-7.06 7.011Zm-8.548-14.861h71.37l12.592-61.787H3.383a3.42 3.42 0 0 0-1.415.309 3.379 3.379 0 0 0-1.84 2.136 3.336 3.336 0 0 0-.087 1.436l11.818 55.068a3.336 3.336 0 0 0 1.14 2.036 3.377 3.377 0 0 0 2.202.802Zm70.595-.934H15.2a2.443 2.443 0 0 1-1.59-.58 2.407 2.407 0 0 1-.822-1.469L.971 128.012a2.41 2.41 0 0 1 .557-1.952 2.45 2.45 0 0 1 1.856-.849H98.02l-12.224 59.918Z" fill="#3F3D56"/><path d="m72.696 185.865 8.247-61.045-.929-.153-8.246 61.046.928.152Zm-45.854-.468.93-.15-8.006-60.578-.93.149 8.006 60.579Zm21.848-60.653h.94v61.045h-.94v-61.045Z" fill="#3F3D56"/><path d="m94.354 141.101.003.935-91.13.219-.001-.935 91.128-.219ZM9.656 169.976l80.059.543-.007.935-80.058-.543.006-.935Zm104.94-54.579c-2.86 0-5.178-1.256-5.178-2.805 0-1.548 2.318-2.804 5.178-2.804s5.178 1.256 5.178 2.804c0 1.549-2.318 2.805-5.178 2.805Z" fill="#3F3D56"/></g><defs><clipPath id="a"><path fill="#fff" d="M245 0H0v203h245z"/></clipPath></defs></svg>