<svg width="81" height="135" viewBox="0 0 81 135" fill="none" xmlns="http://www.w3.org/2000/svg"><path d="M31.51 5.276 16.643 9.26a2.04 2.04 0 0 0-1.443 2.5l1.749 6.525a2.041 2.041 0 0 0 2.499 1.442l2.463-.66 2.62 9.777 9.94-2.663-2.62-9.777 2.463-.66a2.04 2.04 0 0 0 1.443-2.5L34.01 6.72a2.04 2.04 0 0 0-2.5-1.443Z" fill="#F9A109"/><path d="M62.402 61.007a79.127 79.127 0 0 1-25.439-41.752 1.67 1.67 0 0 0-1.69-1.272l-.755-2.82-15.7 4.208.744 2.78-.216.058a1.667 1.667 0 0 0-1.14 2.16c5.856 16.912 5.823 33.494-.102 49.747a4.596 4.596 0 0 0-.082 2.906l15.947 52.647a4.76 4.76 0 0 0 5.746 3.216l35.514-9.516a4.76 4.76 0 0 0 3.35-5.738l-13.154-51.74a9.634 9.634 0 0 0-3.023-4.884Z" fill="#3F3D56"/><path opacity=".2" d="M28.98 8.233a4.402 4.402 0 1 1-8.505 2.279" fill="#000"/><path d="m61.507 80.154-4.3 1.152a11.685 11.685 0 0 0-22.311 5.978l-4.3 1.153a3.285 3.285 0 0 0-2.158 4.496l12.807 29.112 26.823-7.188-2.434-31.78a3.286 3.286 0 0 0-4.127-2.923Z" fill="#F9A109"/></svg>